<svg id="Layer_1" data-name="Layer 1" xmlns="http://www.w3.org/2000/svg" viewBox="0 0 406.47 406.47"><defs><style>.cls-1,.cls-4,.cls-5{fill:none;}.cls-1,.cls-2,.cls-3,.cls-4,.cls-5,.cls-7{stroke:#fff;}.cls-1,.cls-2,.cls-3,.cls-5{stroke-linecap:round;}.cls-1,.cls-4,.cls-5,.cls-7{stroke-miterlimit:10;}.cls-1{stroke-width:9.7px;}.cls-2,.cls-3{stroke-linejoin:round;}.cls-2,.cls-4{stroke-width:6.47px;}.cls-3{stroke-width:6.18px;}.cls-5{stroke-width:2.89px;}.cls-6,.cls-7{fill:#fff;}.cls-7{stroke-width:0.54px;}</style></defs><title>evolve-white400</title><path class="cls-1" d="M211.65,233.8a27.48,27.48,0,1,0-17.15,0"/><line class="cls-1" x1="192.05" y1="247.08" x2="214.15" y2="247.08"/><line class="cls-1" x1="196.63" y1="258.94" x2="209.57" y2="258.94"/><polyline class="cls-2" points="260.38 206.91 244.19 206.91 322.91 206.74"/><polyline class="cls-3" points="203.78 284.1 203.78 273.05 204 326.8"/><polyline class="cls-2" points="162.66 247.55 174.1 236.1 118.56 291.88"/><polyline class="cls-2" points="243.66 247.43 232.22 235.99 288 291.53"/><polyline class="cls-2" points="145.82 207.07 162.01 207.07 83.29 207.24"/><polyline class="cls-2" points="162.54 166.54 173.98 177.99 118.2 122.44"/><polyline class="cls-2" points="203.02 149.71 203.02 165.89 202.85 87.18"/><polyline class="cls-2" points="243.54 166.43 232.1 177.87 287.64 122.09"/><circle class="cls-4" cx="34.23" cy="203.23" r="31"/><circle class="cls-4" cx="372.24" cy="203.23" r="31"/><circle class="cls-4" cx="203.23" cy="34.23" r="31"/><circle class="cls-4" cx="203.23" cy="372.24" r="31"/><circle class="cls-4" cx="83.73" cy="83.73" r="31"/><circle class="cls-4" cx="322.74" cy="322.74" r="31"/><circle class="cls-4" cx="83.73" cy="322.74" r="31"/><circle class="cls-4" cx="322.74" cy="83.73" r="31"/><path class="cls-5" d="M86.24,329.68a8.18,8.18,0,1,0-5.11,0"/><line class="cls-5" x1="80.4" y1="333.64" x2="86.98" y2="333.64"/><line class="cls-5" x1="81.77" y1="337.17" x2="85.62" y2="337.17"/><line class="cls-6" x1="95.93" y1="321.67" x2="100.74" y2="321.67"/><path class="cls-6" d="M100.74,323.12H95.93a1.45,1.45,0,1,1,0-2.89h4.81a1.45,1.45,0,1,1,0,2.89Z"/><line class="cls-6" x1="66.72" y1="321.67" x2="71.53" y2="321.67"/><path class="cls-6" d="M71.53,323.12H66.72a1.45,1.45,0,0,1,0-2.89h4.81a1.45,1.45,0,0,1,0,2.89Z"/><line class="cls-6" x1="92.44" y1="312.89" x2="95.28" y2="310.04"/><path class="cls-6" d="M92.44,314.33a1.44,1.44,0,0,1-1-2.46L94.26,309a1.45,1.45,0,0,1,2,0,1.43,1.43,0,0,1,0,2l-2.84,2.85A1.44,1.44,0,0,1,92.44,314.33Z"/><line class="cls-6" x1="83.75" y1="309.46" x2="83.75" y2="305.44"/><path class="cls-6" d="M84.77,310.49a1.44,1.44,0,0,1-2.46-1v-4a1.44,1.44,0,0,1,2.88,0v4A1.48,1.48,0,0,1,84.77,310.49Z"/><line class="cls-6" x1="72.02" y1="333.31" x2="74.25" y2="331.07"/><path class="cls-6" d="M72,334.75a1.45,1.45,0,0,1-1-2.47l2.23-2.23a1.45,1.45,0,0,1,2,2.05L73,334.33A1.44,1.44,0,0,1,72,334.75Z"/><line class="cls-6" x1="92.44" y1="330.46" x2="95.28" y2="333.31"/><path class="cls-6" d="M95.28,334.75a1.44,1.44,0,0,1-1-.42l-2.84-2.85a1.43,1.43,0,0,1,0-2,1.45,1.45,0,0,1,2,0l2.84,2.84a1.45,1.45,0,0,1-1,2.47Z"/><line class="cls-6" x1="72.02" y1="310.04" x2="74.86" y2="312.89"/><path class="cls-6" d="M74.86,314.33a1.46,1.46,0,0,1-1-.42L71,311.06a1.43,1.43,0,0,1,0-2,1.45,1.45,0,0,1,2,0l2.85,2.85a1.45,1.45,0,0,1,0,2A1.48,1.48,0,0,1,74.86,314.33Z"/><path class="cls-5" d="M36.74,210.18a8.19,8.19,0,1,0-5.11,0"/><line class="cls-5" x1="30.9" y1="214.13" x2="37.48" y2="214.13"/><line class="cls-5" x1="32.27" y1="217.66" x2="36.12" y2="217.66"/><line class="cls-6" x1="46.43" y1="202.17" x2="51.24" y2="202.17"/><path class="cls-6" d="M51.24,203.62H46.43a1.45,1.45,0,1,1,0-2.89h4.81a1.45,1.45,0,1,1,0,2.89Z"/><line class="cls-6" x1="17.22" y1="202.17" x2="22.03" y2="202.17"/><path class="cls-6" d="M22,203.62H17.22a1.45,1.45,0,0,1,0-2.89H22a1.45,1.45,0,0,1,0,2.89Z"/><line class="cls-6" x1="42.94" y1="193.38" x2="45.78" y2="190.54"/><path class="cls-6" d="M42.94,194.83a1.45,1.45,0,0,1-1-2.47l2.84-2.84a1.44,1.44,0,0,1,2,2L44,194.41A1.44,1.44,0,0,1,42.94,194.83Z"/><line class="cls-6" x1="34.25" y1="189.96" x2="34.25" y2="185.94"/><path class="cls-6" d="M35.27,191a1.44,1.44,0,0,1-2.46-1v-4a1.44,1.44,0,1,1,2.88,0v4A1.44,1.44,0,0,1,35.27,191Z"/><line class="cls-6" x1="22.52" y1="213.8" x2="24.75" y2="211.57"/><path class="cls-6" d="M22.52,215.25a1.41,1.41,0,0,1-1-.43,1.43,1.43,0,0,1,0-2l2.23-2.23a1.45,1.45,0,0,1,2,0,1.43,1.43,0,0,1,0,2l-2.23,2.23A1.41,1.41,0,0,1,22.52,215.25Z"/><line class="cls-6" x1="42.94" y1="210.96" x2="45.78" y2="213.8"/><path class="cls-6" d="M45.78,215.25a1.41,1.41,0,0,1-1-.43L41.92,212a1.44,1.44,0,1,1,2-2l2.84,2.84a1.43,1.43,0,0,1,0,2A1.41,1.41,0,0,1,45.78,215.25Z"/><line class="cls-6" x1="22.52" y1="190.54" x2="25.36" y2="193.38"/><path class="cls-6" d="M25.36,194.83a1.47,1.47,0,0,1-1-.42l-2.84-2.85a1.44,1.44,0,0,1,2-2l2.85,2.84a1.46,1.46,0,0,1,0,2A1.48,1.48,0,0,1,25.36,194.83Z"/><path class="cls-5" d="M205.74,379.18a8.18,8.18,0,1,0-5.11,0"/><line class="cls-5" x1="199.9" y1="383.14" x2="206.48" y2="383.14"/><line class="cls-5" x1="201.27" y1="386.67" x2="205.12" y2="386.67"/><line class="cls-6" x1="215.43" y1="371.17" x2="220.25" y2="371.17"/><path class="cls-6" d="M220.25,372.62h-4.82a1.45,1.45,0,1,1,0-2.89h4.82a1.45,1.45,0,0,1,0,2.89Z"/><line class="cls-6" x1="186.22" y1="371.17" x2="191.03" y2="371.17"/><path class="cls-6" d="M191,372.62h-4.81a1.45,1.45,0,0,1,0-2.89H191a1.45,1.45,0,1,1,0,2.89Z"/><line class="cls-6" x1="211.94" y1="362.39" x2="214.79" y2="359.54"/><path class="cls-6" d="M211.94,363.83a1.44,1.44,0,0,1-1-2.46l2.84-2.85a1.45,1.45,0,1,1,2.05,2L213,363.41A1.44,1.44,0,0,1,211.94,363.83Z"/><line class="cls-6" x1="203.25" y1="358.96" x2="203.25" y2="354.94"/><path class="cls-6" d="M204.27,360a1.44,1.44,0,0,1-2.46-1v-4a1.45,1.45,0,0,1,2.89,0v4A1.44,1.44,0,0,1,204.27,360Z"/><line class="cls-6" x1="191.52" y1="382.81" x2="193.75" y2="380.57"/><path class="cls-6" d="M191.52,384.25a1.44,1.44,0,0,1-1-.42,1.46,1.46,0,0,1,0-2.05l2.23-2.23a1.45,1.45,0,0,1,2.05,2.05l-2.24,2.23A1.44,1.44,0,0,1,191.52,384.25Z"/><line class="cls-6" x1="211.94" y1="379.96" x2="214.79" y2="382.81"/><path class="cls-6" d="M214.79,384.25a1.48,1.48,0,0,1-1-.42L210.92,381a1.44,1.44,0,0,1,2-2l2.85,2.84a1.46,1.46,0,0,1,0,2.05A1.44,1.44,0,0,1,214.79,384.25Z"/><line class="cls-6" x1="191.52" y1="359.54" x2="194.37" y2="362.39"/><path class="cls-6" d="M194.37,363.83a1.44,1.44,0,0,1-1-.42l-2.85-2.85a1.44,1.44,0,1,1,2-2l2.85,2.85a1.44,1.44,0,0,1-1,2.46Z"/><path class="cls-5" d="M325.78,329.68a8.18,8.18,0,1,0-5.11,0"/><line class="cls-5" x1="319.95" y1="333.64" x2="326.53" y2="333.64"/><line class="cls-5" x1="321.31" y1="337.17" x2="325.16" y2="337.17"/><line class="cls-6" x1="335.47" y1="321.67" x2="340.29" y2="321.67"/><path class="cls-6" d="M340.29,323.12h-4.82a1.45,1.45,0,0,1,0-2.89h4.82a1.45,1.45,0,0,1,0,2.89Z"/><line class="cls-6" x1="306.26" y1="321.67" x2="311.07" y2="321.67"/><path class="cls-6" d="M311.07,323.12h-4.81a1.45,1.45,0,0,1,0-2.89h4.81a1.45,1.45,0,1,1,0,2.89Z"/><line class="cls-6" x1="331.98" y1="312.89" x2="334.83" y2="310.04"/><path class="cls-6" d="M332,314.33a1.44,1.44,0,0,1-1-2.46l2.85-2.85a1.44,1.44,0,1,1,2,2L333,313.91A1.44,1.44,0,0,1,332,314.33Z"/><line class="cls-6" x1="323.29" y1="309.46" x2="323.29" y2="305.44"/><path class="cls-6" d="M324.32,310.49a1.48,1.48,0,0,1-1,.42,1.45,1.45,0,0,1-1.44-1.45v-4a1.45,1.45,0,0,1,2.89,0v4A1.48,1.48,0,0,1,324.32,310.49Z"/><line class="cls-6" x1="311.56" y1="333.31" x2="313.8" y2="331.07"/><path class="cls-6" d="M311.56,334.75a1.44,1.44,0,0,1-1-.42,1.46,1.46,0,0,1,0-2.05l2.23-2.23a1.45,1.45,0,0,1,2.05,2.05l-2.23,2.23A1.48,1.48,0,0,1,311.56,334.75Z"/><line class="cls-6" x1="331.98" y1="330.46" x2="334.83" y2="333.31"/><path class="cls-6" d="M334.83,334.75a1.44,1.44,0,0,1-1-.42L331,331.48a1.44,1.44,0,0,1,2-2l2.85,2.84a1.46,1.46,0,0,1,0,2.05A1.44,1.44,0,0,1,334.83,334.75Z"/><line class="cls-6" x1="311.56" y1="310.04" x2="314.41" y2="312.89"/><path class="cls-6" d="M314.41,314.33a1.44,1.44,0,0,1-1-.42l-2.85-2.85a1.45,1.45,0,1,1,2-2l2.84,2.85a1.44,1.44,0,0,1-1,2.46Z"/><path class="cls-5" d="M374.84,208.93a8.19,8.19,0,1,0-5.11,0"/><line class="cls-5" x1="369" y1="212.88" x2="375.58" y2="212.88"/><line class="cls-5" x1="370.37" y1="216.41" x2="374.22" y2="216.41"/><line class="cls-6" x1="384.53" y1="200.92" x2="389.35" y2="200.92"/><path class="cls-6" d="M389.35,202.36h-4.82a1.45,1.45,0,1,1,0-2.89h4.82a1.45,1.45,0,0,1,0,2.89Z"/><line class="cls-6" x1="355.32" y1="200.92" x2="360.13" y2="200.92"/><path class="cls-6" d="M360.13,202.36h-4.81a1.45,1.45,0,0,1,0-2.89h4.81a1.45,1.45,0,0,1,0,2.89Z"/><line class="cls-6" x1="381.04" y1="192.13" x2="383.88" y2="189.29"/><path class="cls-6" d="M381,193.58a1.41,1.41,0,0,1-1-.43,1.43,1.43,0,0,1,0-2l2.84-2.84a1.45,1.45,0,0,1,2.05,2l-2.85,2.84A1.41,1.41,0,0,1,381,193.58Z"/><line class="cls-6" x1="372.35" y1="188.71" x2="372.35" y2="184.69"/><path class="cls-6" d="M373.37,189.73a1.44,1.44,0,0,1-2.46-1v-4a1.45,1.45,0,1,1,2.89,0v4A1.44,1.44,0,0,1,373.37,189.73Z"/><line class="cls-6" x1="360.62" y1="212.55" x2="362.85" y2="210.32"/><path class="cls-6" d="M360.62,214a1.45,1.45,0,0,1-1-2.47l2.23-2.23a1.44,1.44,0,1,1,2,2l-2.23,2.23A1.45,1.45,0,0,1,360.62,214Z"/><line class="cls-6" x1="381.04" y1="209.71" x2="383.88" y2="212.55"/><path class="cls-6" d="M383.88,214a1.48,1.48,0,0,1-1-.43L380,210.73a1.45,1.45,0,1,1,2-2l2.85,2.85a1.45,1.45,0,0,1,0,2A1.49,1.49,0,0,1,383.88,214Z"/><line class="cls-6" x1="360.62" y1="189.29" x2="363.47" y2="192.13"/><path class="cls-6" d="M363.47,193.58a1.45,1.45,0,0,1-1-.43l-2.84-2.84a1.45,1.45,0,0,1,0-2,1.43,1.43,0,0,1,2,0l2.85,2.84a1.45,1.45,0,0,1,0,2A1.41,1.41,0,0,1,363.47,193.58Z"/><path class="cls-5" d="M325.24,90.68a8.2,8.2,0,1,0-5.1,0"/><line class="cls-5" x1="319.41" y1="94.63" x2="325.99" y2="94.63"/><line class="cls-5" x1="320.77" y1="98.16" x2="324.62" y2="98.16"/><line class="cls-6" x1="334.93" y1="82.67" x2="339.75" y2="82.67"/><path class="cls-6" d="M339.75,84.11h-4.82a1.45,1.45,0,0,1,0-2.89h4.82a1.45,1.45,0,0,1,0,2.89Z"/><line class="cls-6" x1="305.73" y1="82.67" x2="310.53" y2="82.67"/><path class="cls-6" d="M310.53,84.11h-4.8a1.45,1.45,0,1,1,0-2.89h4.8a1.45,1.45,0,1,1,0,2.89Z"/><line class="cls-6" x1="331.44" y1="73.88" x2="334.29" y2="71.04"/><path class="cls-6" d="M331.44,75.33a1.45,1.45,0,0,1-1-2.47L333.27,70a1.45,1.45,0,0,1,2,2l-2.84,2.84A1.49,1.49,0,0,1,331.44,75.33Z"/><line class="cls-6" x1="322.76" y1="70.46" x2="322.76" y2="66.43"/><path class="cls-6" d="M323.78,71.48a1.45,1.45,0,0,1-2.47-1v-4a1.45,1.45,0,0,1,2.89,0v4A1.44,1.44,0,0,1,323.78,71.48Z"/><line class="cls-6" x1="311.03" y1="94.3" x2="313.26" y2="92.07"/><path class="cls-6" d="M311,95.74a1.48,1.48,0,0,1-1-.42,1.45,1.45,0,0,1,0-2l2.24-2.23a1.43,1.43,0,0,1,2,0,1.45,1.45,0,0,1,0,2l-2.23,2.23A1.47,1.47,0,0,1,311,95.74Z"/><line class="cls-6" x1="331.44" y1="91.45" x2="334.29" y2="94.3"/><path class="cls-6" d="M334.29,95.74a1.44,1.44,0,0,1-1-.42l-2.85-2.84a1.45,1.45,0,0,1,2.05-2l2.84,2.85a1.44,1.44,0,0,1-1,2.46Z"/><line class="cls-6" x1="311.03" y1="71.04" x2="313.87" y2="73.88"/><path class="cls-6" d="M313.87,75.33a1.45,1.45,0,0,1-1-.43L310,72.06a1.45,1.45,0,1,1,2.05-2l2.84,2.85a1.43,1.43,0,0,1,0,2A1.45,1.45,0,0,1,313.87,75.33Z"/><path class="cls-5" d="M205.74,40.64a8.19,8.19,0,1,0-5.11,0"/><line class="cls-5" x1="199.9" y1="44.59" x2="206.48" y2="44.59"/><line class="cls-5" x1="201.27" y1="48.12" x2="205.12" y2="48.12"/><line class="cls-7" x1="215.43" y1="32.63" x2="220.25" y2="32.63"/><path class="cls-7" d="M220.25,34.07h-4.82a1.45,1.45,0,1,1,0-2.89h4.82a1.45,1.45,0,0,1,0,2.89Z"/><line class="cls-7" x1="186.22" y1="32.63" x2="191.03" y2="32.63"/><path class="cls-7" d="M191,34.07h-4.81a1.45,1.45,0,0,1,0-2.89H191a1.45,1.45,0,1,1,0,2.89Z"/><line class="cls-7" x1="211.94" y1="23.84" x2="214.79" y2="21"/><path class="cls-7" d="M211.94,25.29a1.41,1.41,0,0,1-1-.43,1.45,1.45,0,0,1,0-2L213.76,20a1.45,1.45,0,1,1,2.05,2L213,24.86A1.41,1.41,0,0,1,211.94,25.29Z"/><line class="cls-7" x1="203.25" y1="20.42" x2="203.25" y2="16.4"/><path class="cls-7" d="M204.27,21.44a1.44,1.44,0,0,1-2.46-1v-4a1.45,1.45,0,1,1,2.89,0v4A1.4,1.4,0,0,1,204.27,21.44Z"/><line class="cls-7" x1="191.52" y1="44.26" x2="193.75" y2="42.03"/><path class="cls-7" d="M191.52,45.71a1.45,1.45,0,0,1-1-2.47L192.73,41a1.45,1.45,0,0,1,2.05,2l-2.24,2.23A1.45,1.45,0,0,1,191.52,45.71Z"/><line class="cls-7" x1="211.94" y1="41.42" x2="214.79" y2="44.26"/><path class="cls-7" d="M214.79,45.71a1.49,1.49,0,0,1-1-.43l-2.84-2.84a1.45,1.45,0,1,1,2-2l2.85,2.85a1.45,1.45,0,0,1-1,2.47Z"/><line class="cls-7" x1="191.52" y1="21" x2="194.37" y2="23.84"/><path class="cls-7" d="M194.37,25.29a1.41,1.41,0,0,1-1-.43L190.5,22a1.45,1.45,0,0,1,0-2,1.43,1.43,0,0,1,2,0l2.85,2.84a1.45,1.45,0,0,1,0,2A1.41,1.41,0,0,1,194.37,25.29Z"/><path class="cls-5" d="M86.24,90.14a8.19,8.19,0,1,0-5.11,0"/><line class="cls-5" x1="80.4" y1="94.09" x2="86.98" y2="94.09"/><line class="cls-5" x1="81.77" y1="97.62" x2="85.62" y2="97.62"/><line class="cls-6" x1="95.93" y1="82.13" x2="100.74" y2="82.13"/><path class="cls-6" d="M100.74,83.57H95.93a1.45,1.45,0,1,1,0-2.89h4.81a1.45,1.45,0,1,1,0,2.89Z"/><line class="cls-6" x1="66.72" y1="82.13" x2="71.53" y2="82.13"/><path class="cls-6" d="M71.53,83.57H66.72a1.45,1.45,0,0,1,0-2.89h4.81a1.45,1.45,0,0,1,0,2.89Z"/><line class="cls-6" x1="92.44" y1="73.34" x2="95.28" y2="70.5"/><path class="cls-6" d="M92.44,74.79a1.41,1.41,0,0,1-1-.43,1.43,1.43,0,0,1,0-2l2.84-2.84a1.44,1.44,0,0,1,2,2l-2.84,2.84A1.41,1.41,0,0,1,92.44,74.79Z"/><line class="cls-6" x1="83.75" y1="69.92" x2="83.75" y2="65.9"/><path class="cls-6" d="M84.77,70.94a1.44,1.44,0,0,1-2.46-1v-4a1.44,1.44,0,1,1,2.88,0v4A1.44,1.44,0,0,1,84.77,70.94Z"/><line class="cls-6" x1="72.02" y1="93.76" x2="74.25" y2="91.53"/><path class="cls-6" d="M72,95.21a1.45,1.45,0,0,1-1-.43,1.43,1.43,0,0,1,0-2l2.23-2.23a1.44,1.44,0,0,1,2,2L73,94.78A1.45,1.45,0,0,1,72,95.21Z"/><line class="cls-6" x1="92.44" y1="90.92" x2="95.28" y2="93.76"/><path class="cls-6" d="M95.28,95.21a1.45,1.45,0,0,1-1-.43l-2.84-2.84a1.45,1.45,0,1,1,2-2l2.84,2.85a1.43,1.43,0,0,1,0,2A1.45,1.45,0,0,1,95.28,95.21Z"/><line class="cls-6" x1="72.02" y1="70.5" x2="74.86" y2="73.34"/><path class="cls-6" d="M74.86,74.79a1.42,1.42,0,0,1-1-.43L71,71.52a1.44,1.44,0,0,1,2-2l2.85,2.84a1.45,1.45,0,0,1-1,2.47Z"/></svg>