<svg id="Layer_1" data-name="Layer 1" xmlns="http://www.w3.org/2000/svg" viewBox="0 0 754 754"><defs><style>.cls-1,.cls-4{fill:none;}.cls-1,.cls-2,.cls-3,.cls-4,.cls-5,.cls-6{stroke:#fff;}.cls-1,.cls-2,.cls-3,.cls-5{stroke-linecap:round;}.cls-1,.cls-4,.cls-5,.cls-6{stroke-miterlimit:10;}.cls-1{stroke-width:18px;}.cls-2,.cls-3{stroke-linejoin:round;}.cls-2,.cls-4{stroke-width:12px;}.cls-3{stroke-width:11.47px;}.cls-5,.cls-6,.cls-7{fill:#fff;}.cls-5{stroke-width:5.36px;}</style></defs><title>evolve-white</title><path class="cls-1" d="M392.61,433.71a51,51,0,1,0-31.82,0"/><line class="cls-1" x1="356.25" y1="458.34" x2="397.25" y2="458.34"/><line class="cls-1" x1="364.75" y1="480.34" x2="388.75" y2="480.34"/><polyline class="cls-2" points="483 383.81 452.98 383.81 599 383.5"/><polyline class="cls-3" points="378.01 527 378.01 506.5 378.43 606.21"/><polyline class="cls-2" points="301.73 459.2 322.96 437.97 219.92 541.44"/><polyline class="cls-2" points="451.99 458.99 430.76 437.76 534.23 540.79"/><polyline class="cls-2" points="270.5 384.11 300.52 384.11 154.5 384.42"/><polyline class="cls-2" points="301.51 308.94 322.74 330.17 219.27 227.13"/><polyline class="cls-2" points="376.6 277.71 376.6 307.73 376.29 161.71"/><polyline class="cls-2" points="451.77 308.72 430.54 329.95 533.58 226.48"/><circle class="cls-4" cx="63.5" cy="377" r="57.5"/><circle class="cls-4" cx="690.5" cy="377" r="57.5"/><circle class="cls-4" cx="377" cy="63.5" r="57.5"/><circle class="cls-4" cx="377" cy="690.5" r="57.5"/><circle class="cls-4" cx="155.32" cy="155.32" r="57.5"/><circle class="cls-4" cx="598.68" cy="598.68" r="57.5"/><circle class="cls-4" cx="155.32" cy="598.68" r="57.5"/><circle class="cls-4" cx="598.68" cy="155.32" r="57.5"/><path class="cls-5" d="M160,611.56a15.19,15.19,0,1,0-9.47,0"/><line class="cls-5" x1="149.14" y1="618.89" x2="161.35" y2="618.89"/><line class="cls-5" x1="151.68" y1="625.44" x2="158.82" y2="625.44"/><line class="cls-6" x1="177.94" y1="596.71" x2="186.88" y2="596.71"/><path class="cls-6" d="M186.88,599.38h-8.94a2.68,2.68,0,1,1,0-5.35h8.94a2.68,2.68,0,1,1,0,5.35Z"/><line class="cls-6" x1="123.77" y1="596.71" x2="132.68" y2="596.71"/><path class="cls-6" d="M132.68,599.38h-8.91a2.68,2.68,0,1,1,0-5.35h8.91a2.68,2.68,0,1,1,0,5.35Z"/><line class="cls-6" x1="171.47" y1="580.41" x2="176.75" y2="575.13"/><path class="cls-6" d="M171.47,583.09a2.69,2.69,0,0,1-1.89-4.58l5.28-5.28a2.68,2.68,0,0,1,3.79,3.79l-5.28,5.28A2.71,2.71,0,0,1,171.47,583.09Z"/><line class="cls-6" x1="155.36" y1="574.06" x2="155.36" y2="566.59"/><path class="cls-6" d="M157.25,576a2.64,2.64,0,0,1-1.89.79,2.68,2.68,0,0,1-2.68-2.68v-7.47a2.68,2.68,0,1,1,5.36,0v7.47A2.64,2.64,0,0,1,157.25,576Z"/><line class="cls-6" x1="133.6" y1="618.28" x2="137.74" y2="614.14"/><path class="cls-6" d="M133.6,621a2.68,2.68,0,0,1-1.9-4.57l4.14-4.14a2.68,2.68,0,1,1,3.79,3.79l-4.14,4.14A2.67,2.67,0,0,1,133.6,621Z"/><line class="cls-6" x1="171.47" y1="613" x2="176.75" y2="618.28"/><path class="cls-6" d="M176.75,621a2.66,2.66,0,0,1-1.89-.78l-5.28-5.28a2.68,2.68,0,0,1,3.79-3.79l5.28,5.28a2.68,2.68,0,0,1-1.9,4.57Z"/><line class="cls-6" x1="133.6" y1="575.13" x2="138.87" y2="580.41"/><path class="cls-6" d="M138.87,583.09a2.68,2.68,0,0,1-1.89-.79L131.7,577a2.68,2.68,0,1,1,3.79-3.79l5.28,5.28a2.69,2.69,0,0,1-1.9,4.58Z"/><path class="cls-5" d="M68.15,389.88a15.19,15.19,0,1,0-9.48,0"/><line class="cls-5" x1="57.32" y1="397.22" x2="69.53" y2="397.22"/><line class="cls-5" x1="59.85" y1="403.77" x2="67" y2="403.77"/><line class="cls-6" x1="86.12" y1="375.03" x2="95.06" y2="375.03"/><path class="cls-6" d="M95.06,377.71H86.12a2.68,2.68,0,0,1,0-5.36h8.94a2.68,2.68,0,1,1,0,5.36Z"/><line class="cls-6" x1="31.94" y1="375.03" x2="40.86" y2="375.03"/><path class="cls-6" d="M40.86,377.71H31.94a2.68,2.68,0,0,1,0-5.36h8.92a2.68,2.68,0,1,1,0,5.36Z"/><line class="cls-6" x1="79.65" y1="358.73" x2="84.93" y2="353.45"/><path class="cls-6" d="M79.65,361.41a2.63,2.63,0,0,1-1.89-.79,2.67,2.67,0,0,1,0-3.79L83,351.56a2.68,2.68,0,0,1,3.79,3.78l-5.27,5.28A2.66,2.66,0,0,1,79.65,361.41Z"/><line class="cls-6" x1="63.53" y1="352.38" x2="63.53" y2="344.91"/><path class="cls-6" d="M65.43,354.27a2.68,2.68,0,0,1-4.58-1.89v-7.47a2.68,2.68,0,1,1,5.36,0v7.47A2.67,2.67,0,0,1,65.43,354.27Z"/><line class="cls-6" x1="41.77" y1="396.6" x2="45.91" y2="392.46"/><path class="cls-6" d="M41.77,399.28a2.68,2.68,0,0,1-1.89-4.57L44,390.57a2.68,2.68,0,0,1,3.79,3.79l-4.14,4.14A2.68,2.68,0,0,1,41.77,399.28Z"/><line class="cls-6" x1="79.65" y1="391.33" x2="84.93" y2="396.6"/><path class="cls-6" d="M84.93,399.28a2.7,2.7,0,0,1-1.9-.78l-5.27-5.28a2.68,2.68,0,0,1,3.79-3.79l5.27,5.28a2.68,2.68,0,0,1-1.89,4.57Z"/><line class="cls-6" x1="41.77" y1="353.45" x2="47.05" y2="358.73"/><path class="cls-6" d="M47.05,361.41a2.64,2.64,0,0,1-1.89-.79l-5.28-5.28a2.68,2.68,0,0,1,3.79-3.78L49,356.83a2.69,2.69,0,0,1,0,3.79A2.66,2.66,0,0,1,47.05,361.41Z"/><path class="cls-5" d="M381.65,703.38a15.19,15.19,0,1,0-9.48,0"/><line class="cls-5" x1="370.82" y1="710.72" x2="383.03" y2="710.72"/><line class="cls-5" x1="373.35" y1="717.27" x2="380.5" y2="717.27"/><line class="cls-6" x1="399.62" y1="688.53" x2="408.56" y2="688.53"/><path class="cls-6" d="M408.56,691.21h-8.94a2.68,2.68,0,1,1,0-5.36h8.94a2.68,2.68,0,1,1,0,5.36Z"/><line class="cls-6" x1="345.44" y1="688.53" x2="354.36" y2="688.53"/><path class="cls-6" d="M354.36,691.21h-8.92a2.68,2.68,0,0,1,0-5.36h8.92a2.68,2.68,0,0,1,0,5.36Z"/><line class="cls-6" x1="393.15" y1="672.23" x2="398.43" y2="666.95"/><path class="cls-6" d="M393.15,674.91a2.63,2.63,0,0,1-1.89-.79,2.67,2.67,0,0,1,0-3.79l5.27-5.27a2.68,2.68,0,0,1,3.79,3.78l-5.27,5.28A2.66,2.66,0,0,1,393.15,674.91Z"/><line class="cls-6" x1="377.03" y1="665.88" x2="377.03" y2="658.41"/><path class="cls-6" d="M378.93,667.77a2.68,2.68,0,0,1-4.58-1.89v-7.47a2.68,2.68,0,0,1,5.36,0v7.47A2.67,2.67,0,0,1,378.93,667.77Z"/><line class="cls-6" x1="355.27" y1="710.1" x2="359.41" y2="705.96"/><path class="cls-6" d="M355.27,712.78a2.68,2.68,0,0,1-1.89-4.57l4.14-4.14a2.68,2.68,0,0,1,3.79,3.79L357.17,712A2.68,2.68,0,0,1,355.27,712.78Z"/><line class="cls-6" x1="393.15" y1="704.83" x2="398.43" y2="710.1"/><path class="cls-6" d="M398.43,712.78a2.7,2.7,0,0,1-1.9-.78l-5.27-5.28a2.68,2.68,0,0,1,3.79-3.79l5.27,5.28a2.68,2.68,0,0,1-1.89,4.57Z"/><line class="cls-6" x1="355.27" y1="666.95" x2="360.55" y2="672.23"/><path class="cls-6" d="M360.55,674.91a2.64,2.64,0,0,1-1.89-.79l-5.28-5.28a2.68,2.68,0,0,1,3.79-3.78l5.28,5.27a2.69,2.69,0,0,1,0,3.79A2.66,2.66,0,0,1,360.55,674.91Z"/><path class="cls-5" d="M604.32,611.56a15.18,15.18,0,1,0-9.47,0"/><line class="cls-5" x1="593.5" y1="618.89" x2="605.71" y2="618.89"/><line class="cls-5" x1="596.03" y1="625.44" x2="603.18" y2="625.44"/><line class="cls-6" x1="622.3" y1="596.71" x2="631.23" y2="596.71"/><path class="cls-6" d="M631.23,599.38H622.3a2.68,2.68,0,1,1,0-5.35h8.93a2.68,2.68,0,1,1,0,5.35Z"/><line class="cls-6" x1="568.12" y1="596.71" x2="577.04" y2="596.71"/><path class="cls-6" d="M577,599.38h-8.92a2.68,2.68,0,1,1,0-5.35H577a2.68,2.68,0,1,1,0,5.35Z"/><line class="cls-6" x1="615.83" y1="580.41" x2="621.11" y2="575.13"/><path class="cls-6" d="M615.83,583.09a2.69,2.69,0,0,1-1.9-4.58l5.28-5.28A2.68,2.68,0,0,1,623,577l-5.28,5.28A2.68,2.68,0,0,1,615.83,583.09Z"/><line class="cls-6" x1="599.71" y1="574.06" x2="599.71" y2="566.59"/><path class="cls-6" d="M601.61,576a2.68,2.68,0,0,1-4.58-1.89v-7.47a2.68,2.68,0,1,1,5.36,0v7.47A2.67,2.67,0,0,1,601.61,576Z"/><line class="cls-6" x1="577.95" y1="618.28" x2="582.09" y2="614.14"/><path class="cls-6" d="M578,621a2.68,2.68,0,0,1-1.89-4.57l4.14-4.14A2.68,2.68,0,0,1,584,616l-4.14,4.14A2.7,2.7,0,0,1,578,621Z"/><line class="cls-6" x1="615.83" y1="613" x2="621.11" y2="618.28"/><path class="cls-6" d="M621.11,621a2.7,2.7,0,0,1-1.9-.78l-5.28-5.28a2.68,2.68,0,0,1,3.79-3.79l5.28,5.28a2.68,2.68,0,0,1-1.89,4.57Z"/><line class="cls-6" x1="577.95" y1="575.13" x2="583.23" y2="580.41"/><path class="cls-6" d="M583.23,583.09a2.67,2.67,0,0,1-1.89-.79L576.06,577a2.68,2.68,0,1,1,3.79-3.79l5.27,5.28a2.69,2.69,0,0,1-1.89,4.58Z"/><path class="cls-5" d="M695.32,387.56a15.18,15.18,0,1,0-9.47,0"/><line class="cls-5" x1="684.5" y1="394.89" x2="696.71" y2="394.89"/><line class="cls-5" x1="687.03" y1="401.44" x2="694.18" y2="401.44"/><line class="cls-6" x1="713.3" y1="372.71" x2="722.23" y2="372.71"/><path class="cls-6" d="M722.23,375.38H713.3a2.68,2.68,0,1,1,0-5.35h8.93a2.68,2.68,0,1,1,0,5.35Z"/><line class="cls-6" x1="659.12" y1="372.71" x2="668.04" y2="372.71"/><path class="cls-6" d="M668,375.38h-8.92a2.68,2.68,0,1,1,0-5.35H668a2.68,2.68,0,1,1,0,5.35Z"/><line class="cls-6" x1="706.83" y1="356.41" x2="712.11" y2="351.13"/><path class="cls-6" d="M706.83,359.09a2.69,2.69,0,0,1-1.9-4.58l5.28-5.28A2.68,2.68,0,0,1,714,353l-5.28,5.28A2.68,2.68,0,0,1,706.83,359.09Z"/><line class="cls-6" x1="690.71" y1="350.06" x2="690.71" y2="342.59"/><path class="cls-6" d="M692.61,352a2.68,2.68,0,0,1-4.58-1.89v-7.47a2.68,2.68,0,0,1,5.36,0v7.47A2.67,2.67,0,0,1,692.61,352Z"/><line class="cls-6" x1="668.95" y1="394.28" x2="673.09" y2="390.14"/><path class="cls-6" d="M669,397a2.68,2.68,0,0,1-1.89-4.57l4.14-4.14A2.68,2.68,0,1,1,675,392l-4.14,4.14A2.7,2.7,0,0,1,669,397Z"/><line class="cls-6" x1="706.83" y1="389" x2="712.11" y2="394.28"/><path class="cls-6" d="M712.11,397a2.7,2.7,0,0,1-1.9-.78l-5.28-5.28a2.68,2.68,0,0,1,3.79-3.79l5.28,5.28a2.68,2.68,0,0,1-1.89,4.57Z"/><line class="cls-6" x1="668.95" y1="351.13" x2="674.23" y2="356.41"/><path class="cls-6" d="M674.23,359.09a2.67,2.67,0,0,1-1.89-.79L667.06,353a2.68,2.68,0,1,1,3.79-3.79l5.27,5.28a2.69,2.69,0,0,1-1.89,4.58Z"/><path class="cls-5" d="M603.32,168.2a15.18,15.18,0,1,0-9.47,0"/><line class="cls-5" x1="592.5" y1="175.54" x2="604.71" y2="175.54"/><line class="cls-5" x1="595.03" y1="182.09" x2="602.18" y2="182.09"/><line class="cls-6" x1="621.3" y1="153.35" x2="630.23" y2="153.35"/><path class="cls-6" d="M630.23,156H621.3a2.68,2.68,0,1,1,0-5.36h8.93a2.68,2.68,0,0,1,0,5.36Z"/><line class="cls-6" x1="567.12" y1="153.35" x2="576.04" y2="153.35"/><path class="cls-6" d="M576,156h-8.92a2.68,2.68,0,1,1,0-5.36H576a2.68,2.68,0,1,1,0,5.36Z"/><line class="cls-6" x1="614.83" y1="137.05" x2="620.11" y2="131.77"/><path class="cls-6" d="M614.83,139.73a2.68,2.68,0,0,1-1.9-4.57l5.28-5.28a2.68,2.68,0,1,1,3.79,3.79l-5.28,5.27A2.64,2.64,0,0,1,614.83,139.73Z"/><line class="cls-6" x1="598.71" y1="130.7" x2="598.71" y2="123.24"/><path class="cls-6" d="M600.61,132.59A2.68,2.68,0,0,1,596,130.7v-7.46a2.68,2.68,0,1,1,5.36,0v7.46A2.67,2.67,0,0,1,600.61,132.59Z"/><line class="cls-6" x1="576.95" y1="174.93" x2="581.09" y2="170.79"/><path class="cls-6" d="M577,177.61a2.69,2.69,0,0,1-1.89-4.58l4.14-4.14a2.68,2.68,0,0,1,3.79,3.79l-4.14,4.14A2.71,2.71,0,0,1,577,177.61Z"/><line class="cls-6" x1="614.83" y1="169.65" x2="620.11" y2="174.93"/><path class="cls-6" d="M620.11,177.61a2.71,2.71,0,0,1-1.9-.79l-5.28-5.28a2.68,2.68,0,0,1,3.79-3.79L622,173a2.69,2.69,0,0,1-1.89,4.58Z"/><line class="cls-6" x1="576.95" y1="131.77" x2="582.23" y2="137.05"/><path class="cls-6" d="M582.23,139.73a2.63,2.63,0,0,1-1.89-.79l-5.28-5.27a2.68,2.68,0,1,1,3.79-3.79l5.27,5.28a2.66,2.66,0,0,1,0,3.78A2.63,2.63,0,0,1,582.23,139.73Z"/><path class="cls-5" d="M381.65,75.38a15.19,15.19,0,1,0-9.48,0"/><line class="cls-5" x1="370.82" y1="82.72" x2="383.03" y2="82.72"/><line class="cls-5" x1="373.35" y1="89.27" x2="380.5" y2="89.27"/><line class="cls-6" x1="399.62" y1="60.53" x2="408.56" y2="60.53"/><path class="cls-6" d="M408.56,63.21h-8.94a2.68,2.68,0,0,1,0-5.36h8.94a2.68,2.68,0,1,1,0,5.36Z"/><line class="cls-6" x1="345.44" y1="60.53" x2="354.36" y2="60.53"/><path class="cls-6" d="M354.36,63.21h-8.92a2.68,2.68,0,0,1,0-5.36h8.92a2.68,2.68,0,1,1,0,5.36Z"/><line class="cls-6" x1="393.15" y1="44.23" x2="398.43" y2="38.95"/><path class="cls-6" d="M393.15,46.91a2.63,2.63,0,0,1-1.89-.79,2.67,2.67,0,0,1,0-3.79l5.27-5.27a2.68,2.68,0,0,1,3.79,3.78l-5.27,5.28A2.66,2.66,0,0,1,393.15,46.91Z"/><line class="cls-6" x1="377.03" y1="37.88" x2="377.03" y2="30.41"/><path class="cls-6" d="M378.93,39.77a2.68,2.68,0,0,1-4.58-1.89V30.41a2.68,2.68,0,0,1,5.36,0v7.47A2.67,2.67,0,0,1,378.93,39.77Z"/><line class="cls-6" x1="355.27" y1="82.1" x2="359.41" y2="77.96"/><path class="cls-6" d="M355.27,84.78a2.68,2.68,0,0,1-1.89-4.57l4.14-4.14a2.68,2.68,0,0,1,3.79,3.79L357.17,84A2.68,2.68,0,0,1,355.27,84.78Z"/><line class="cls-6" x1="393.15" y1="76.83" x2="398.43" y2="82.1"/><path class="cls-6" d="M398.43,84.78a2.7,2.7,0,0,1-1.9-.78l-5.27-5.28a2.68,2.68,0,1,1,3.79-3.79l5.27,5.28a2.68,2.68,0,0,1-1.89,4.57Z"/><line class="cls-6" x1="355.27" y1="38.95" x2="360.55" y2="44.23"/><path class="cls-6" d="M360.55,46.91a2.64,2.64,0,0,1-1.89-.79l-5.28-5.28a2.68,2.68,0,1,1,3.79-3.78l5.28,5.27a2.69,2.69,0,0,1,0,3.79A2.66,2.66,0,0,1,360.55,46.91Z"/><path class="cls-5" d="M160,167.2a15.19,15.19,0,1,0-9.47,0"/><line class="cls-5" x1="149.14" y1="174.54" x2="161.35" y2="174.54"/><line class="cls-5" x1="151.68" y1="181.09" x2="158.82" y2="181.09"/><line class="cls-6" x1="177.94" y1="152.35" x2="186.88" y2="152.35"/><path class="cls-6" d="M186.88,155h-8.94a2.68,2.68,0,0,1,0-5.36h8.94a2.68,2.68,0,0,1,0,5.36Z"/><line class="cls-6" x1="123.77" y1="152.35" x2="132.68" y2="152.35"/><path class="cls-6" d="M132.68,155h-8.91a2.68,2.68,0,1,1,0-5.36h8.91a2.68,2.68,0,0,1,0,5.36Z"/><line class="cls-6" x1="171.47" y1="136.05" x2="176.75" y2="130.77"/><path class="cls-6" d="M171.47,138.73a2.68,2.68,0,0,1-1.89-4.57l5.28-5.28a2.68,2.68,0,0,1,3.79,3.79l-5.28,5.27A2.66,2.66,0,0,1,171.47,138.73Z"/><line class="cls-6" x1="155.36" y1="129.7" x2="155.36" y2="122.24"/><path class="cls-6" d="M157.25,131.59a2.64,2.64,0,0,1-1.89.79,2.68,2.68,0,0,1-2.68-2.68v-7.46a2.68,2.68,0,1,1,5.36,0v7.46A2.64,2.64,0,0,1,157.25,131.59Z"/><line class="cls-6" x1="133.6" y1="173.93" x2="137.74" y2="169.79"/><path class="cls-6" d="M133.6,176.61a2.69,2.69,0,0,1-1.9-4.58l4.14-4.14a2.68,2.68,0,1,1,3.79,3.79l-4.14,4.14A2.68,2.68,0,0,1,133.6,176.61Z"/><line class="cls-6" x1="171.47" y1="168.65" x2="176.75" y2="173.93"/><path class="cls-6" d="M176.75,176.61a2.67,2.67,0,0,1-1.89-.79l-5.28-5.28a2.68,2.68,0,0,1,3.79-3.79l5.28,5.28a2.69,2.69,0,0,1-1.9,4.58Z"/><line class="cls-7" x1="133.6" y1="130.77" x2="138.87" y2="136.05"/><path class="cls-7" d="M138.87,138.73a2.64,2.64,0,0,1-1.89-.79l-5.28-5.27a2.68,2.68,0,1,1,3.79-3.79l5.28,5.28a2.68,2.68,0,0,1,0,3.78A2.65,2.65,0,0,1,138.87,138.73Z"/></svg>