<?xml version="1.0" encoding="utf-8"?>
<!-- Generator: Adobe Illustrator 23.0.2, SVG Export Plug-In . SVG Version: 6.00 Build 0)  -->
<svg version="1.1" id="Layer_1" focusable="false" xmlns="http://www.w3.org/2000/svg" xmlns:xlink="http://www.w3.org/1999/xlink"
	 x="0px" y="0px" viewBox="0 0 576 384" style="enable-background:new 0 0 576 384;" xml:space="preserve">
<style type="text/css">
	.st0{fill:#FFFFFF;}
</style>
<path class="st0" d="M572.7,228.1l-72.4,124.2C488.8,371.9,467.8,384,445,384H45c-18.5,0-30.1-20.1-20.7-36.1l72.4-124.2
	c11.5-19.7,32.5-31.8,55.3-31.8h400C570.5,192,582,212.1,572.7,228.1z M152,160h328v-48c0-26.5-21.5-48-48-48H272L208,0H48
	C21.5,0,0,21.5,0,48v278l69.1-118.4C86.2,178.3,118,160,152,160z"/>
</svg>
