<svg id="Layer_1" data-name="Layer 1" xmlns="http://www.w3.org/2000/svg" viewBox="0 0 486.22 380.72"><defs><style>.cls-1,.cls-4{fill:#fff;}.cls-2,.cls-3,.cls-5,.cls-6{fill:none;}.cls-2,.cls-3,.cls-4,.cls-5,.cls-6{stroke:#fff;stroke-miterlimit:10;}.cls-2{stroke-width:10.97px;}.cls-3,.cls-6{stroke-linecap:round;}.cls-3,.cls-5{stroke-width:7px;}.cls-6{stroke-width:10px;}</style></defs><title>sign-up-white</title><g id="person"><g id="person-2"><path class="cls-1" d="M97.73,278.54A29.79,29.79,0,1,0,68,248.75,29.79,29.79,0,0,0,97.73,278.54Z" transform="translate(-2 -1)"/><path class="cls-1" d="M142.41,353a7.44,7.44,0,0,0,7.45-7.44,52.13,52.13,0,1,0-104.25,0A7.44,7.44,0,0,0,53.06,353Z" transform="translate(-2 -1)"/></g></g><circle class="cls-2" cx="95.73" cy="284.98" r="90.25"/><line class="cls-3" x1="140.33" y1="189.17" x2="198.51" y2="119.83"/><line class="cls-3" x1="345.28" y1="189.66" x2="288.31" y2="119.34"/><circle class="cls-2" cx="390.48" cy="284.98" r="90.25"/><path class="cls-4" d="M428.79,260.64a3.75,3.75,0,0,0-3.76-3.75H359.37a3.76,3.76,0,0,0,0,7.51H425A3.76,3.76,0,0,0,428.79,260.64Z" transform="translate(-2 -1)"/><path class="cls-4" d="M411.2,283.08a3.75,3.75,0,0,0-3.75-3.76H359.37a3.76,3.76,0,0,0,0,7.51h48.09A3.76,3.76,0,0,0,411.2,283.08Z" transform="translate(-2 -1)"/><path class="cls-4" d="M359.37,301.82a3.76,3.76,0,0,0,0,7.51h23.2a3.76,3.76,0,0,0,0-7.51Z" transform="translate(-2 -1)"/><path class="cls-4" d="M436.45,320.59a7.49,7.49,0,0,1-7.49,7.49H354a7.5,7.5,0,0,1-7.49-7.49V249.37a7.5,7.5,0,0,1,7.49-7.5h75a7.49,7.49,0,0,1,7.49,7.5v3l7.5-.9v-2.15a15,15,0,0,0-15-15H354a15,15,0,0,0-15,15V320.6a15,15,0,0,0,15,15h75a15,15,0,0,0,15-15V298.71l-7.5.9v21Z" transform="translate(-2 -1)"/><path class="cls-4" d="M459,266.87l-9-9a3.32,3.32,0,0,0-4.7,0L440,263.2l-.07.07,13.67,13.67.07-.07,5.31-5.31A3.31,3.31,0,0,0,459,266.87Z" transform="translate(-2 -1)"/><path class="cls-1" d="M404.34,298.76l0,13.64,14,0,32.37-32.38-13.79-13.8ZM419,305.35l-4,.31.35-4.35-4.29.14.56-3.73,4.83-4.83,7.52,7.52Zm18.85-32.56a1.11,1.11,0,0,1,0,1.59l-17.25,17.25a1.11,1.11,0,0,1-1.59,0,1.12,1.12,0,0,1,0-1.59l17.26-17.26A1.12,1.12,0,0,1,437.87,272.79Z" transform="translate(-2 -1)"/><circle class="cls-5" cx="243.11" cy="58.97" r="55.47"/><line class="cls-6" x1="243.11" y1="22.12" x2="243.11" y2="95.82"/><line class="cls-6" x1="279.96" y1="58.97" x2="206.26" y2="58.97"/></svg>