<svg id="Layer_2" data-name="Layer 2" xmlns="http://www.w3.org/2000/svg" viewBox="0 0 674.52 566"><defs><style>.cls-1,.cls-2{fill:none;}.cls-1,.cls-4{stroke:#fff;stroke-miterlimit:10;}.cls-1{stroke-linecap:round;stroke-width:18px;}.cls-3,.cls-4{fill:#fff;}</style></defs><title>team-up logo-white</title><path class="cls-1" d="M349.61,262.9a51,51,0,1,0-31.82,0"/><line class="cls-1" x1="313.25" y1="287.53" x2="354.25" y2="287.53"/><line class="cls-1" x1="321.75" y1="309.53" x2="345.75" y2="309.53"/><g id="person"><g id="person-2"><rect class="cls-2" width="235" height="235"/><path class="cls-3" d="M117.5,107.71A39.17,39.17,0,1,0,78.33,68.54,39.17,39.17,0,0,0,117.5,107.71Z"/><path class="cls-3" d="M176.25,205.63a9.79,9.79,0,0,0,9.79-9.8,68.54,68.54,0,1,0-137.08,0,9.79,9.79,0,0,0,9.79,9.8Z"/></g></g><g id="person-2-2" data-name="person"><g id="person-2-3" data-name="person-2"><rect class="cls-2" x="439.52" y="10.21" width="235" height="235"/><path class="cls-3" d="M557,117.92a39.17,39.17,0,1,0-39.17-39.17A39.17,39.17,0,0,0,557,117.92Z"/><path class="cls-3" d="M615.77,215.83a9.79,9.79,0,0,0,9.79-9.79,68.55,68.55,0,0,0-137.09,0,9.79,9.79,0,0,0,9.8,9.79Z"/></g></g><g id="person-3" data-name="person"><g id="person-2-4" data-name="person-2"><rect class="cls-2" x="216" y="331" width="235" height="235"/><path class="cls-4" d="M333.5,438.71a39.17,39.17,0,1,0-39.17-39.17A39.17,39.17,0,0,0,333.5,438.71Z"/><path class="cls-3" d="M392.25,536.63a9.79,9.79,0,0,0,9.79-9.8,68.54,68.54,0,0,0-137.08,0,9.79,9.79,0,0,0,9.79,9.8Z"/></g></g><path class="cls-3" d="M126.88,244h-18a223.45,223.45,0,0,0,65.78,152.2q6.53,6.53,13.48,12.43l11.2-14.25A206.65,206.65,0,0,1,126.88,244Z"/><path class="cls-3" d="M540.62,244a206.66,206.66,0,0,1-74.9,152.45l10.9,14.49Q485,404,492.85,396.2A223.45,223.45,0,0,0,558.63,244Z"/><path class="cls-3" d="M217.2,66.12a206.55,206.55,0,0,1,237.58,3.16L466,55A225.23,225.23,0,0,0,206.3,51.62Z"/><line class="cls-3" x1="409.98" y1="213" x2="440" y2="213"/><path class="cls-3" d="M440,222H410a9,9,0,0,1,0-18h30a9,9,0,0,1,0,18Z"/><line class="cls-3" x1="228" y1="213" x2="257.96" y2="213"/><path class="cls-3" d="M258,222H228a9,9,0,0,1,0-18h30a9,9,0,0,1,0,18Z"/><line class="cls-3" x1="388.25" y1="158.25" x2="405.98" y2="140.52"/><path class="cls-3" d="M388.25,167.25a9,9,0,0,1-6.36-15.36l17.72-17.73a9,9,0,1,1,12.73,12.73l-17.73,17.72A9,9,0,0,1,388.25,167.25Z"/><line class="cls-3" x1="334.11" y1="136.92" x2="334.11" y2="111.85"/><path class="cls-3" d="M340.48,143.29a9,9,0,0,1-15.37-6.37V111.85a9,9,0,0,1,18,0v25.07A9,9,0,0,1,340.48,143.29Z"/><line class="cls-3" x1="261.02" y1="285.48" x2="274.93" y2="271.57"/><path class="cls-3" d="M261,294.48a9,9,0,0,1-6.36-15.37l13.9-13.9a9,9,0,0,1,12.73,12.73l-13.9,13.9A9,9,0,0,1,261,294.48Z"/><line class="cls-3" x1="388.25" y1="267.75" x2="405.98" y2="285.48"/><path class="cls-3" d="M406,294.48a9,9,0,0,1-6.37-2.64l-17.72-17.73a9,9,0,0,1,12.72-12.72l17.73,17.72A9,9,0,0,1,406,294.48Z"/><line class="cls-3" x1="261.02" y1="140.52" x2="278.75" y2="158.25"/><path class="cls-3" d="M278.75,167.25a9,9,0,0,1-6.36-2.64l-17.73-17.72a9,9,0,1,1,12.73-12.73l17.72,17.73a9,9,0,0,1-6.36,15.36Z"/></svg>