<svg id="Layer_2" data-name="Layer 2" xmlns="http://www.w3.org/2000/svg" viewBox="0 0 439.71 400"><defs><style>.cls-1{fill:none;stroke-linecap:round;stroke-width:13.73px;}.cls-1,.cls-3{stroke:#fff;stroke-miterlimit:10;}.cls-2,.cls-3{fill:#fff;}.cls-3{stroke-width:0.76px;}</style></defs><title>team-up logo</title><path class="cls-1" d="M229.27,194.64a38.9,38.9,0,1,0-24.26,0" transform="translate(0 -3.38)"/><line class="cls-1" x1="201.55" y1="210.04" x2="232.81" y2="210.04"/><line class="cls-1" x1="208.03" y1="226.82" x2="226.33" y2="226.82"/><g id="person"><g id="person-2"><path class="cls-2" d="M52.27,76.29A29.87,29.87,0,1,0,22.4,46.42,29.87,29.87,0,0,0,52.27,76.29Z" transform="translate(0 -3.38)"/><path class="cls-2" d="M97.07,151a7.46,7.46,0,0,0,7.47-7.46A52.27,52.27,0,0,0,0,143.5,7.46,7.46,0,0,0,7.47,151Z" transform="translate(0 -3.38)"/></g></g><g id="person-2-2" data-name="person"><g id="person-2-3" data-name="person-2"><path class="cls-2" d="M387.44,84.08a29.87,29.87,0,1,0-29.87-29.87A29.87,29.87,0,0,0,387.44,84.08Z" transform="translate(0 -3.38)"/><path class="cls-2" d="M432.24,158.75a7.47,7.47,0,0,0,7.47-7.47,52.27,52.27,0,1,0-104.54,0,7.47,7.47,0,0,0,7.47,7.47Z" transform="translate(0 -3.38)"/></g></g><g id="person-3" data-name="person"><g id="person-2-4" data-name="person-2"><path class="cls-3" d="M217,328.71a29.87,29.87,0,1,0-29.87-29.87A29.87,29.87,0,0,0,217,328.71Z" transform="translate(0 -3.38)"/><path class="cls-2" d="M261.79,403.38a7.46,7.46,0,0,0,7.47-7.47,52.27,52.27,0,0,0-104.54,0,7.46,7.46,0,0,0,7.47,7.47Z" transform="translate(0 -3.38)"/></g></g><path class="cls-2" d="M59.42,180.23H45.68A170.4,170.4,0,0,0,95.85,296.29q5,5,10.28,9.48l8.54-10.86A157.59,157.59,0,0,1,59.42,180.23Z" transform="translate(0 -3.38)"/><path class="cls-2" d="M374.94,180.23a157.64,157.64,0,0,1-57.12,116.26l8.31,11.05q6.42-5.3,12.38-11.25a170.4,170.4,0,0,0,50.17-116.06Z" transform="translate(0 -3.38)"/><path class="cls-2" d="M128.3,44.58A157.53,157.53,0,0,1,309.48,47L318,36.12a171.75,171.75,0,0,0-198-2.6Z" transform="translate(0 -3.38)"/><line class="cls-2" x1="275.31" y1="153.21" x2="298.21" y2="153.21"/><path class="cls-2" d="M298.21,163.45h-22.9a6.87,6.87,0,0,1,0-13.73h22.9a6.87,6.87,0,0,1,0,13.73Z" transform="translate(0 -3.38)"/><line class="cls-2" x1="136.54" y1="153.21" x2="159.38" y2="153.21"/><path class="cls-2" d="M159.38,163.45H136.54a6.87,6.87,0,1,1,0-13.73h22.84a6.87,6.87,0,1,1,0,13.73Z" transform="translate(0 -3.38)"/><line class="cls-2" x1="258.74" y1="111.45" x2="272.26" y2="97.93"/><path class="cls-2" d="M258.74,121.7A6.87,6.87,0,0,1,253.89,110l13.52-13.52a6.86,6.86,0,0,1,9.7,9.71l-13.52,13.52A6.83,6.83,0,0,1,258.74,121.7Z" transform="translate(0 -3.38)"/><line class="cls-2" x1="217.46" y1="95.19" x2="217.46" y2="76.07"/><path class="cls-2" d="M222.31,103.42a6.87,6.87,0,0,1-11.72-4.85V79.45a6.87,6.87,0,0,1,13.73,0V98.57A6.83,6.83,0,0,1,222.31,103.42Z" transform="translate(0 -3.38)"/><line class="cls-2" x1="161.72" y1="208.48" x2="172.32" y2="197.87"/><path class="cls-2" d="M161.72,218.72A6.86,6.86,0,0,1,156.86,207l10.61-10.61a6.87,6.87,0,0,1,9.71,9.71l-10.61,10.6A6.85,6.85,0,0,1,161.72,218.72Z" transform="translate(0 -3.38)"/><line class="cls-2" x1="258.74" y1="194.96" x2="272.26" y2="208.48"/><path class="cls-2" d="M272.26,218.72a6.83,6.83,0,0,1-4.85-2l-13.52-13.52a6.86,6.86,0,0,1,9.7-9.7L277.11,207a6.86,6.86,0,0,1-4.85,11.71Z" transform="translate(0 -3.38)"/><line class="cls-2" x1="161.72" y1="97.93" x2="175.24" y2="111.45"/><path class="cls-2" d="M175.24,121.7a6.85,6.85,0,0,1-4.86-2l-13.52-13.52a6.87,6.87,0,0,1,9.71-9.71L180.09,110a6.87,6.87,0,0,1-4.85,11.72Z" transform="translate(0 -3.38)"/></svg>