<svg id="Layer_2" data-name="Layer 2" xmlns="http://www.w3.org/2000/svg" viewBox="0 0 400 363.88"><defs><style>.cls-1{fill:none;stroke-linecap:round;stroke-width:12.49px;}.cls-1,.cls-3{stroke:#fff;stroke-miterlimit:10;}.cls-2,.cls-3{fill:#fff;}.cls-3{stroke-width:0.69px;}</style></defs><title>team-up-white</title><path class="cls-1" d="M208.57,186.28a35.37,35.37,0,1,0-22.08,0" transform="translate(0 -12.3)"/><line class="cls-1" x1="183.35" y1="191.07" x2="211.79" y2="191.07"/><line class="cls-1" x1="189.24" y1="206.34" x2="205.89" y2="206.34"/><g id="person"><g id="person-2"><path class="cls-2" d="M47.55,78.63A27.18,27.18,0,1,0,20.38,51.46,27.18,27.18,0,0,0,47.55,78.63Z" transform="translate(0 -12.3)"/><path class="cls-2" d="M88.31,146.55a6.79,6.79,0,0,0,6.79-6.79,47.55,47.55,0,0,0-95.1,0,6.79,6.79,0,0,0,6.79,6.79Z" transform="translate(0 -12.3)"/></g></g><g id="person-2-2" data-name="person"><g id="person-2-3" data-name="person-2"><path class="cls-2" d="M352.45,85.71a27.17,27.17,0,1,0-27.17-27.17A27.17,27.17,0,0,0,352.45,85.71Z" transform="translate(0 -12.3)"/><path class="cls-2" d="M393.21,153.63a6.79,6.79,0,0,0,6.79-6.79,47.55,47.55,0,0,0-95.1,0,6.79,6.79,0,0,0,6.79,6.79Z" transform="translate(0 -12.3)"/></g></g><g id="person-3" data-name="person"><g id="person-2-4" data-name="person-2"><path class="cls-3" d="M197.39,308.25a27.17,27.17,0,1,0-27.17-27.17A27.17,27.17,0,0,0,197.39,308.25Z" transform="translate(0 -12.3)"/><path class="cls-2" d="M238.15,376.17a6.79,6.79,0,0,0,6.79-6.79,47.55,47.55,0,0,0-95.1,0,6.8,6.8,0,0,0,6.8,6.79Z" transform="translate(0 -12.3)"/></g></g><path class="cls-2" d="M54.05,173.17H41.56A155,155,0,0,0,87.2,278.76c3,3,6.14,5.88,9.35,8.62l7.77-9.88A143.37,143.37,0,0,1,54.05,173.17Z" transform="translate(0 -12.3)"/><path class="cls-2" d="M341.08,173.17a143.39,143.39,0,0,1-52,105.76L296.68,289q5.83-4.82,11.26-10.23a155,155,0,0,0,45.63-105.59Z" transform="translate(0 -12.3)"/><path class="cls-2" d="M116.72,49.77A143.32,143.32,0,0,1,281.53,52l7.79-9.87a156.23,156.23,0,0,0-180.17-2.37Z" transform="translate(0 -12.3)"/><line class="cls-2" x1="250.45" y1="139.37" x2="271.27" y2="139.37"/><path class="cls-2" d="M271.27,157.91H250.45a6.24,6.24,0,1,1,0-12.48h20.82a6.24,6.24,0,1,1,0,12.48Z" transform="translate(0 -12.3)"/><line class="cls-2" x1="124.21" y1="139.37" x2="144.99" y2="139.37"/><path class="cls-2" d="M145,157.91H124.21a6.24,6.24,0,1,1,0-12.48H145a6.24,6.24,0,0,1,0,12.48Z" transform="translate(0 -12.3)"/><line class="cls-2" x1="235.37" y1="101.39" x2="247.67" y2="89.09"/><path class="cls-2" d="M235.37,119.93A6.25,6.25,0,0,1,231,109.27L243.26,97a6.24,6.24,0,1,1,8.83,8.83l-12.3,12.3A6.23,6.23,0,0,1,235.37,119.93Z" transform="translate(0 -12.3)"/><line class="cls-2" x1="197.82" y1="86.59" x2="197.82" y2="69.2"/><path class="cls-2" d="M202.23,103.31a6.24,6.24,0,0,1-10.65-4.42V81.5a6.24,6.24,0,0,1,12.48,0V98.89A6.23,6.23,0,0,1,202.23,103.31Z" transform="translate(0 -12.3)"/><line class="cls-2" x1="147.11" y1="189.65" x2="156.76" y2="180"/><path class="cls-2" d="M147.11,208.19a6.25,6.25,0,0,1-4.41-10.66l9.64-9.64a6.24,6.24,0,0,1,8.83,8.83l-9.64,9.64A6.23,6.23,0,0,1,147.11,208.19Z" transform="translate(0 -12.3)"/><line class="cls-2" x1="235.37" y1="177.35" x2="247.67" y2="189.65"/><path class="cls-2" d="M247.67,208.19a6.21,6.21,0,0,1-4.41-1.83L231,194.07a6.24,6.24,0,0,1,8.83-8.83l12.3,12.29a6.25,6.25,0,0,1-4.42,10.66Z" transform="translate(0 -12.3)"/><line class="cls-2" x1="147.11" y1="89.09" x2="159.41" y2="101.39"/><path class="cls-2" d="M159.41,119.93A6.21,6.21,0,0,1,155,118.1l-12.3-12.3A6.24,6.24,0,0,1,151.53,97l12.3,12.3a6.25,6.25,0,0,1-4.42,10.66Z" transform="translate(0 -12.3)"/></svg>