<?xml version="1.0" encoding="utf-8"?>
<!-- Generator: Adobe Illustrator 23.0.2, SVG Export Plug-In . SVG Version: 6.00 Build 0)  -->
<svg version="1.1" id="Layer_1" focusable="false" xmlns="http://www.w3.org/2000/svg" xmlns:xlink="http://www.w3.org/1999/xlink"
	 x="0px" y="0px" viewBox="0 0 640 512" style="enable-background:new 0 0 640 512;" xml:space="preserve">
<style type="text/css">
	.st0{fill:#FFFFFF;}
</style>
<path class="st0" d="M633.8,458.1L362.3,248.3C412.1,230.7,448,183.8,448,128C448,57.3,390.7,0,320,0
	c-67.1,0-121.5,51.8-126.9,117.4L45.5,3.4c-7-5.4-17-4.2-22.5,2.8L3.4,31.4c-5.4,7-4.2,17,2.8,22.4l588.4,454.7
	c7,5.4,17,4.2,22.5-2.8l19.6-25.3C642.1,473.6,640.8,463.5,633.8,458.1L633.8,458.1z M96,422.4V464c0,26.5,21.5,48,48,48h350.2
	L207.4,290.3C144.2,301.3,96,356,96,422.4z"/>
</svg>
